HIERARCHY
ROOT Hips
{
	OFFSET 0.000000 0.000000 0.000000 
	CHANNELS 6 Xposition Yposition Zposition Zrotation Xrotation Yrotation
	JOINT Spine
	{
		OFFSET -0.000000 8.280624 0.000000 
		CHANNELS 3 Zrotation Xrotation Yrotation
		JOINT Spine1
		{
			OFFSET -0.000000 24.860672 0.000000 
			CHANNELS 3 Zrotation Xrotation Yrotation
			JOINT Neck
			{
				OFFSET -0.000000 24.758574 2.250779 
				CHANNELS 3 Zrotation Xrotation Yrotation
				JOINT Head
				{
					OFFSET -0.000000 14.137651 -2.019665 
					CHANNELS 3 Zrotation Xrotation Yrotation
					End Site
					{
						OFFSET -0.000000 25.245806 0.000000 
					}
				}
			}
			JOINT LeftShoulder
			{
				OFFSET 4.021533 22.370487 -0.301823 
				CHANNELS 3 Zrotation Xrotation Yrotation
				JOINT LeftArm
				{
					OFFSET 12.928750 0.000000 0.000000 
					CHANNELS 3 Zrotation Xrotation Yrotation
					JOINT LeftForeArm
					{
						OFFSET 29.110218 0.000000 0.000000 
						CHANNELS 3 Zrotation Xrotation Yrotation
						JOINT LeftHand
						{
							OFFSET 26.112843 0.000000 0.000000 
							CHANNELS 3 Zrotation Xrotation Yrotation
							End Site
							{
								OFFSET 15.147485 0.000000 0.000000 
							}
						}
					}
				}
			}
			JOINT RightShoulder
			{
				OFFSET -4.040554 22.370487 -0.301823 
				CHANNELS 3 Zrotation Xrotation Yrotation
				JOINT RightArm
				{
					OFFSET -12.928750 0.000000 0.000000 
					CHANNELS 3 Zrotation Xrotation Yrotation
					JOINT RightForeArm
					{
						OFFSET -29.110218 0.000000 0.000000 
						CHANNELS 3 Zrotation Xrotation Yrotation
						JOINT RightHand
						{
							OFFSET -26.112843 0.000000 0.000000 
							CHANNELS 3 Zrotation Xrotation Yrotation
							End Site
							{
								OFFSET -15.147485 0.000000 0.000000 
							}
						}
					}
				}
			}
		}
	}
	JOINT LeftUpLeg
	{
		OFFSET 10.098323 0.000000 0.000000 
		CHANNELS 3 Zrotation Xrotation Yrotation
		JOINT LeftLeg
		{
			OFFSET -0.000000 -44.180832 0.000000 
			CHANNELS 3 Zrotation Xrotation Yrotation
			JOINT LeftFoot
			{
				OFFSET -0.000000 -40.401024 0.000000 
				CHANNELS 3 Zrotation Xrotation Yrotation
				JOINT LeftToeBase
				{
					OFFSET -0.000000 -6.563910 15.147485 
					CHANNELS 3 Zrotation Xrotation Yrotation
					End Site
					{
						OFFSET -0.000000 0.000000 4.039329 
					}
				}
			}
		}
	}
	JOINT RightUpLeg
	{
		OFFSET -10.098323 0.000000 0.000000 
		CHANNELS 3 Zrotation Xrotation Yrotation
		JOINT RightLeg
		{
			OFFSET -0.000000 -44.180832 0.000000 
			CHANNELS 3 Zrotation Xrotation Yrotation
			JOINT RightFoot
			{
				OFFSET -0.000000 -40.401024 0.000000 
				CHANNELS 3 Zrotation Xrotation Yrotation
				JOINT RightToeBase
				{
					OFFSET -0.000000 -6.563910 15.147485 
					CHANNELS 3 Zrotation Xrotation Yrotation
					End Site
					{
						OFFSET -0.000000 0.000000 4.039329 
					}
				}
			}
		}
	}
}
MOTION
Frames: 16
Frame Time: 0.008333
-42.381706 93.724731 6.368132 2.486173 -0.947713 102.490189 -1.180489 12.793872 -10.644831 -0.471998 4.329203 -10.759043 -0.712670 20.480404 30.567451 -17.543755 -5.414357 28.751612 2.350529 -0.234418 -29.904745 -16.352325 31.462671 -76.823387 -8.587130 -7.909044 -46.213432 17.045544 -14.058948 -17.187885 1.445995 5.960599 5.521525 56.746830 -1.085164 17.219767 24.321068 -12.674129 93.887100 -16.719976 -39.588009 23.332821 17.099676 -13.894512 -0.044628 -0.872608 18.657532 11.092577 -6.427395 8.509501 9.602079 0.000000 0.000000 0.000000 -9.800194 -5.526380 -11.729179 -0.136838 24.385033 15.399943 10.856899 -4.802745 -20.995483 0.000000 0.000000 0.000000 
-42.557922 93.654259 6.828035 2.300290 -0.954096 101.883247 -1.145645 12.956107 -10.644830 -0.694190 4.179112 -10.749284 -0.684936 20.500875 30.774252 -17.636868 -5.550011 28.935055 2.400968 -0.425847 -30.038502 -16.236147 30.730127 -76.997566 -8.138474 -7.685905 -46.708694 18.127804 -13.924124 -17.613909 1.275685 5.744179 5.509707 56.550831 -1.699286 17.363237 23.561981 -12.276053 95.230125 -16.549229 -39.027817 23.156921 17.258621 -14.164966 -0.348292 -1.108335 19.047384 11.312226 -7.178108 8.164690 9.247784 0.000000 0.000000 0.000000 -9.625894 -6.344995 -11.421592 -0.169736 25.007565 15.614813 10.520413 -5.011556 -20.897612 0.000000 0.000000 0.000000 
-42.730312 93.581116 7.258113 2.138077 -0.915452 101.306961 -1.130844 13.122465 -10.650264 -0.925518 4.061242 -10.747215 -0.725048 20.546871 30.981546 -17.697920 -5.793438 29.104988 2.436494 -0.583891 -30.156736 -16.293306 29.921799 -77.129005 -7.705897 -7.330781 -47.080551 19.169508 -13.688553 -18.236687 1.147264 5.611528 5.499471 56.266045 -2.493625 17.586710 23.118351 -11.650077 96.567421 -16.700621 -38.664379 23.370825 17.401909 -14.426488 -0.510889 -1.448266 19.486523 11.668619 -8.214190 7.849025 8.922419 0.000000 0.000000 0.000000 -9.487548 -7.087824 -11.027922 -0.174436 25.588255 15.770098 10.185157 -5.251621 -20.825657 0.000000 0.000000 0.000000 
-42.899193 93.504356 7.667231 1.974658 -0.852197 100.749023 -1.128543 13.261941 -10.655651 -1.153699 3.973846 -10.746506 -0.796312 20.566093 31.149580 -17.752155 -6.027197 29.234631 2.448535 -0.743617 -30.284143 -16.576899 29.063787 -77.180702 -7.411612 -6.956431 -47.425312 20.004473 -13.499708 -19.048140 1.041974 5.545280 5.474413 55.898266 -3.520526 17.856544 22.977432 -10.725070 97.967300 -17.242416 -38.429115 23.452042 17.584339 -14.756975 -0.737331 -2.074939 20.107756 12.337880 -9.275879 7.503690 8.776189 0.000000 0.000000 0.000000 -9.358725 -7.797068 -10.575836 -0.204120 26.131365 15.969238 9.914757 -5.522892 -20.797466 0.000000 0.000000 0.000000 
-43.071270 93.422447 8.053253 1.806260 -0.756070 100.201065 -1.147542 13.394580 -10.653423 -1.360089 3.891184 -10.741652 -0.908496 20.573011 31.299599 -17.818005 -6.247697 29.343340 2.428797 -0.914689 -30.435490 -16.594597 28.265644 -77.344185 -6.958733 -6.732953 -47.863968 20.778534 -13.353073 -19.620289 0.768906 5.259544 5.462822 55.727322 -4.346583 17.956509 22.806231 -9.926709 99.508438 -18.200184 -38.350746 23.141306 17.700676 -15.124557 -0.587367 -2.626164 20.874714 12.671864 -10.021667 7.201776 8.559518 0.000000 0.000000 0.000000 -9.248458 -8.505083 -10.136742 -0.263400 26.676600 16.166754 9.653707 -5.802217 -20.798029 0.000000 0.000000 0.000000 
-43.248653 93.336067 8.415698 1.624318 -0.628305 99.668915 -1.173907 13.545333 -10.647818 -1.571499 3.757596 -10.735360 -1.074030 20.646660 31.464321 -17.880753 -6.557540 29.451181 2.389818 -1.115155 -30.619341 -16.636509 27.514605 -77.503334 -6.300803 -6.420610 -48.259575 21.631491 -13.032443 -20.124203 0.418907 4.890945 5.447817 55.627438 -5.093974 17.991547 22.066227 -9.151341 100.780334 -19.193476 -37.601353 22.863474 17.719444 -15.535532 0.035366 -2.978065 21.791136 12.491034 -10.722255 6.777238 8.344734 0.000000 0.000000 0.000000 -9.182275 -9.223197 -9.700476 -0.313895 27.245771 16.413239 9.380889 -6.112840 -20.864548 0.000000 0.000000 0.000000 
-43.436050 93.248970 8.756145 1.415957 -0.463579 99.173538 -1.237941 13.675614 -10.666879 -1.703271 3.619897 -10.761170 -1.365352 20.676517 31.612619 -17.885103 -6.814507 29.555092 2.263424 -1.320315 -30.800657 -16.658859 26.761585 -77.666420 -5.545916 -6.052203 -48.726559 22.639006 -12.602528 -20.394384 0.070637 4.665996 5.470188 55.392937 -6.028039 18.158609 21.121855 -8.465204 102.140633 -19.949076 -36.643284 22.406780 17.687183 -16.091326 0.668943 -3.417106 22.990713 12.087034 -11.315736 6.297015 8.333909 0.000000 0.000000 0.000000 -9.178941 -9.951098 -9.206130 -0.275312 27.802608 16.353069 9.109018 -6.382480 -20.779047 0.000000 0.000000 0.000000 
-43.621082 93.165527 9.053615 1.209439 -0.260137 98.746460 -1.318215 13.711049 -10.683489 -1.837385 3.644093 -10.783195 -1.588300 20.673275 31.713490 -17.994408 -7.043242 29.596943 2.172975 -1.502628 -30.987598 -16.641165 25.929766 -77.917961 -4.990284 -5.793849 -49.230400 23.736305 -12.399534 -20.723734 -0.245508 4.422387 5.466484 55.097950 -7.018958 18.308172 20.282896 -7.885187 103.724380 -20.465405 -35.820831 21.461658 17.555531 -16.684853 1.340726 -3.813675 24.290529 11.674885 -11.774347 5.876161 8.194093 0.000000 0.000000 0.000000 -9.252681 -10.646109 -8.878959 -0.253451 28.342602 16.199957 8.876002 -6.594104 -20.527952 0.000000 0.000000 0.000000 
-43.808647 93.092514 9.298640 0.979246 -0.020072 98.362915 -1.271877 13.731787 -10.722441 -2.196545 3.609550 -10.806042 -1.654266 20.743067 31.805639 -18.199541 -7.220741 29.624744 2.187488 -1.595830 -31.178934 -16.640854 25.062803 -78.242302 -4.500238 -5.647394 -49.658234 24.681797 -12.370549 -21.345491 -0.404750 4.292706 5.423884 54.696674 -7.908491 18.494438 19.819185 -7.587914 105.377136 -19.879587 -35.592125 21.249601 17.318829 -17.305727 1.936838 -4.210049 25.628992 11.269184 -12.117307 5.454842 8.082103 0.000000 0.000000 0.000000 -9.408244 -11.353855 -8.674927 -0.270660 28.907824 16.325661 8.688893 -6.820750 -20.452547 0.000000 0.000000 0.000000 
-44.001743 93.025841 9.517167 0.736967 0.244425 98.026054 -1.130717 13.723978 -10.777920 -2.706357 3.584603 -10.828977 -1.541935 20.720341 31.828751 -18.478424 -7.120653 29.618397 2.270169 -1.674888 -31.414652 -16.614977 24.175997 -78.604485 -3.823965 -5.455048 -50.043579 25.658070 -12.184329 -21.797659 -0.493754 4.232345 5.333396 54.266006 -9.070856 18.670124 19.348349 -7.095638 106.868660 -19.210073 -35.171288 21.465832 17.004004 -17.958849 2.495668 -4.587089 26.981649 10.847286 -12.461401 5.113119 8.038154 0.000000 0.000000 0.000000 -9.598701 -12.067405 -8.468238 -0.300925 29.482254 16.550140 8.543689 -7.050397 -20.495846 0.000000 0.000000 0.000000 
-44.177521 92.959732 9.724667 0.519830 0.503044 97.762054 -1.040296 13.747825 -10.857197 -3.062609 3.549584 -10.887373 -1.580267 20.726568 31.878996 -18.714218 -7.106046 29.628448 2.302942 -1.662953 -31.493454 -16.555624 23.220755 -79.122894 -3.286955 -5.279489 -50.504086 26.782457 -12.090569 -22.147236 -0.848381 3.675223 5.385306 53.925522 -9.883968 18.180819 18.544649 -6.725480 108.539589 -19.243612 -34.509777 20.940937 16.665163 -18.571310 3.111375 -4.869606 28.290482 10.423332 -12.922506 4.834217 7.841708 0.000000 0.000000 0.000000 -9.774531 -12.721485 -8.398981 -0.410161 30.029449 16.804541 8.428746 -7.259933 -20.475903 0.000000 0.000000 0.000000 
-44.321259 92.882385 9.904372 0.322567 0.816593 97.576073 -0.975146 13.731843 -10.976672 -3.411995 3.549714 -10.988011 -1.718775 20.783918 31.954285 -18.883242 -7.156627 29.661707 2.311041 -1.763082 -31.636679 -16.631004 22.399084 -79.553474 -2.572026 -5.045568 -50.933121 28.074776 -11.853874 -22.339169 -1.286578 3.094661 5.425441 53.743721 -10.996927 17.764780 18.026335 -6.092357 110.184555 -19.322456 -33.943836 20.334883 16.201426 -19.187458 3.576064 -5.109931 29.636642 10.124295 -13.413703 4.614912 7.551270 0.000000 0.000000 0.000000 -10.036798 -13.282389 -8.366169 -0.484277 30.549999 17.085978 8.256020 -7.567578 -20.501577 0.000000 0.000000 0.000000 
-44.453941 92.823708 10.070711 0.149790 1.090091 97.429985 -0.795853 13.677094 -11.096838 -3.873386 3.601556 -11.070143 -1.749399 20.879852 32.002918 -19.112658 -7.158703 29.667221 2.340604 -1.857908 -31.849165 -16.754257 21.538738 -79.950127 -1.808107 -4.758718 -51.227913 29.066074 -11.547572 -22.799488 -1.505597 2.852735 5.314509 -130.496094 21.914898 175.624817 57.985577 -20.766283 -105.285767 -28.130224 54.899292 64.469986 15.796022 -19.728910 3.858434 -5.517757 30.856943 9.807215 -13.605211 4.390596 7.443527 0.000000 0.000000 0.000000 -10.245250 -13.773398 -8.304156 -0.552332 30.996004 17.307476 8.111925 -7.811887 -20.553232 0.000000 0.000000 0.000000 
-44.582340 92.782608 10.230697 0.011502 1.322587 97.294281 -0.595153 13.659942 -11.198686 -4.300108 3.635802 -11.133128 -1.801713 21.050915 32.069904 -19.328419 -7.211654 29.683886 2.333902 -1.927642 -32.042580 -16.866772 20.670399 -80.401138 -1.019603 -4.469718 -51.460670 29.825987 -11.201838 -23.333523 -1.690747 2.624943 5.190155 -124.677711 13.533819 -177.290161 70.611938 -32.977894 -91.826981 -14.400144 54.326603 50.211044 15.443931 -20.174910 4.129947 -5.970899 31.926561 9.849080 -13.943653 4.261586 7.122059 0.000000 0.000000 0.000000 -10.382669 -14.208018 -8.181228 -0.622212 31.384203 17.443321 7.998433 -7.981413 -20.614176 0.000000 0.000000 0.000000 
-44.692921 92.735985 10.370378 -0.106203 1.566971 97.212868 -0.404519 13.647716 -11.320777 -4.723989 3.644810 -11.218501 -1.799778 21.210701 32.125538 -19.524435 -7.122953 29.718584 2.327570 -2.088784 -32.266266 -16.904804 20.001854 -80.888153 -0.056017 -4.301292 -51.625797 30.594099 -10.834068 -23.640249 -1.898362 2.475342 5.084272 -125.136726 14.540755 -177.359467 70.663223 -34.015484 -92.044380 -12.971376 54.581703 49.198902 15.040664 -20.583092 4.371363 -6.314291 32.909050 9.647717 -14.301754 4.123756 6.950702 0.000000 0.000000 0.000000 -10.548376 -14.568357 -8.037866 -0.646887 31.733580 17.498562 7.853563 -8.190999 -20.672350 0.000000 0.000000 0.000000 
-44.792812 92.688881 10.497474 -0.208890 1.785965 97.166443 -0.127275 13.672152 -11.495132 -5.208708 3.539839 -11.349048 -1.778223 21.377930 32.165478 -19.672518 -6.866361 29.775181 2.341177 -2.391658 -32.448406 -16.826710 19.597557 -81.422394 0.975708 -4.326262 -51.765377 31.780510 -10.677969 -23.801264 -2.080292 2.489900 4.981906 -125.619278 15.920196 -177.587433 70.693237 -34.826912 -92.572891 -11.990951 55.373222 48.510281 14.626338 -20.949198 4.633105 -6.534866 33.806183 9.325609 -14.582206 4.007477 6.736777 0.000000 0.000000 0.000000 -10.687282 -14.886252 -7.932875 -0.695922 32.055504 17.550648 7.703272 -8.391491 -20.718853 0.000000 0.000000 0.000000 
